<?xml version="1.0" encoding="utf-8"?>
<!-- Generator: Adobe Illustrator 25.0.0, SVG Export Plug-In . SVG Version: 6.00 Build 0)  -->
<svg version="1.1" id="Layer_1" xmlns="http://www.w3.org/2000/svg" xmlns:xlink="http://www.w3.org/1999/xlink" x="0px" y="0px"
	 viewBox="0 0 40.5 41" style="enable-background:new 0 0 40.5 41;" xml:space="preserve">
<style type="text/css">
	.st0{fill-rule:evenodd;clip-rule:evenodd;fill:#4481C3;}
	.st1{fill-rule:evenodd;clip-rule:evenodd;fill:#383838;}
</style>
<g>
	<path class="st0" d="M31,41l9.1-41c0,0-3.5,0-3.6,0l-9.1,41H31z"/>
	<path class="st1" d="M20.1,13c0.2,0.5,0.3,1,0.2,1.4h5.1c0.3-2-0.2-3.7-1.4-4.9c-1.2-1.2-2.9-1.8-5.3-1.8c-1.7,0-3.2,0.4-4.5,1.1
		c-1.4,0.8-2.5,1.8-3.5,3c-1.2,1.5-2.1,3.3-2.9,5.5c-0.4,1.2-0.9,2.8-1.3,4.8c-0.7,3.4-0.7,6.1,0.1,8.2c1,2.7,3.1,4.1,6.3,4.1
		c3,0,5.5-0.9,7.3-2.8c1.8-1.8,3-4,3.5-6.4c0.5-2.4,0.2-4.4-0.9-6c-1.1-1.6-2.8-2.3-5.1-2.3c-1,0-2,0.2-3,0.5
		c-0.9,0.4-1.8,0.9-2.5,1.6c0.6-2,1.2-3.5,1.7-4.5c1.1-1.9,2.5-2.8,4.1-2.8C19,11.8,19.7,12.2,20.1,13z M16.7,29
		c-0.8,0.8-1.8,1.3-2.9,1.3c-1.2,0-2-0.4-2.6-1.3c-0.6-0.9-0.7-2-0.4-3.4c0.4-1.7,1.1-3,2.3-3.7c0.7-0.5,1.6-0.8,2.5-0.8
		c1.1,0,1.9,0.4,2.4,1.2c0.6,0.8,0.7,2,0.4,3.5C18.1,27.1,17.5,28.2,16.7,29z"/>
</g>
</svg>
